<?xml version="1.0" encoding="UTF-8"?>
<svg width="300" height="160" version="1.1" viewBox="0 0 79.375 42.333" xmlns="http://www.w3.org/2000/svg">
<g fill="#ff007f">
<path d="m18.063 21.524v1.093h-0.74001v0.70487h0.74001v1.1286h-0.74001v0.70487h0.74001v2.2918h0.70487v-2.2918h0.95188v2.2918h0.70487v-2.2918h1.3508v-0.70487h-1.3508v-1.1286h1.3508v-0.70487h-1.3508v-1.093h-0.70487v1.093h-0.95188v-1.093zm0.70487 1.7978h0.95188v1.1286h-0.95188z"/>
<path d="m19.05 6.1773v6.5583h0.70487v-2.0097h1.9384v2.3621h0.70487v-6.9107zm0.70487 0.70538h1.9384v1.3751h-1.9384zm0 2.0805h1.9384v1.0578h-1.9384z"/>
<path d="m16.371 5.2962v2.0097h-1.4449v0.70538h1.4449v1.7978h-1.727v3.5259h3.3833v-3.5259h-0.95136v-1.7978h1.3038v-0.70538h-1.3038v-2.0097zm-1.0222 5.2183h1.9735v2.1156h-1.9735z"/>
<path d="m10.583 37.042v-2.1167l-3.3073-0.52917c-1.8201 0-1.9844-0.41063-1.9844-1.3229l-0.01217-2.6458h-2.6337v4.3656c0 1.3113 0.93768 2.249 2.249 2.249z"/>
<path d="m5.2888 11.906 0.0029-2.6458c0-0.91228 0.16431-1.3229 1.9844-1.3229l3.3073-0.52917v-2.1167h-5.6885c-1.3113 0-2.249 0.93768-2.249 2.249v4.3656z"/>
<path d="m34.396 11.906v-4.3656c0-1.3113-0.93768-2.249-2.249-2.249h-5.6885v2.1167l3.3073 0.52917c1.8201 0 1.9844 0.41063 1.9844 1.3229l-0.0024 2.6458z"/>
<path d="m32.147 37.042c1.3113 0 2.249-0.93768 2.249-2.249v-4.3656h-2.6424l-0.0034 2.6458c0 0.91228-0.16431 1.3229-1.9844 1.3229l-3.3073 0.52917v2.1167z"/>
<path d="m15.446 33.057h2.7136v-0.70538h-2.7136v-1.1322l3.2422-0.98293-0.17621-0.66992-3.7708 1.1282v5.5002l0.56383 0.31724 2.8546-1.9039-0.38762-0.59928-2.326 1.5513z"/>
<path d="m14.679 21.488 0.81068 0.8464 0.49345-0.49371-0.81068-0.84614z"/>
<path d="m18.045 15.816v-0.98742h3.0308v-0.70512h-5.1102v0.70512h1.3745v5.7825h0.70485v-4.0899h1.9735v3.9841h0.70485v-4.6892z"/>
<path d="m19.075 31.788v5.2533h0.70485v-5.2533h1.8158v3.3142h0.70485v-4.0193h-3.6835v0.70512z"/>
<path d="m16.063 23.428-0.8546 5.3591h7.1543v-0.70512h-6.3524l0.8546-5.3594h-2.1852v0.70538z"/>
<path d="m65.883 24.113c-2.8982 2.7951-4.0313 6.9794-0.02997 10.243 3.9571-1.8814 3.7699-6.8334 0.02997-10.243zm0.01809 2.1782c1.7005 2.2304 1.7297 4.7531 0.13798 6.258-1.815-2.1595-1.4143-4.4073-0.13798-6.258z"/>
<path d="m61.058 4.4018-1.2914 0.29559c0.82338 4.9141 0.57494 8.4041-1.0253 11.229-0.46117-0.83661-0.79984-1.7387-0.96997-2.7058 0.48683-1.1663 0.73048-2.4459 0.60772-3.7124l-1.3865 0.0708c0.15266 3.0504-2.3093 6.1431-4.1786 6.582l0.3638 1.5524c0.32358-0.07673 0.64804-0.20084 0.96687-0.36277-0.0037 2.849 1.2547 6.1562 4.0644 9.1317l1.1601-0.83199c-1.4044-1.5923-2.3659-3.2087-2.9678-4.7491 0.91678-0.7231 1.7075-1.4695 2.3745-2.2614 1.0054 1.1824 2.2407 2.1534 3.5202 2.9032l0.88263-1.063c-1.2999-0.86757-2.5104-1.9053-3.4618-3.1094 2.1537-3.3131 2.4599-7.3648 1.341-12.969zm-4.2995 10.633c0.24024 0.82259 0.59504 1.5939 1.0366 2.3022-0.53737 0.68183-1.1698 1.3226-1.9058 1.942-0.25453-1.0454-0.34655-2.033-0.29972-2.9259 0.42175-0.38126 0.81676-0.82799 1.1689-1.3183z"/>
<path d="m61.514 28.796-1.3758 0.49609c1.1176 2.4024 0.41645 4.8871-1.7769 7.2567l1.1353 0.85275c1.0433-1.0628 1.8039-2.2622 2.2101-3.5409 0.66675 1.1361 1.6198 2.0865 2.5567 2.9371l1.0739-0.91334c-1.4288-1.5343-2.7011-2.9125-3.2737-4.7188-0.04895-0.7837-0.22675-1.5769-0.54954-2.3696z"/>
<path d="m53.32 22.187-0.91837 1.0395c1.7634 1.1581 1.7701 3.5925-0.84164 5.6859l1.0361 0.94668c1.0951-0.92048 1.8553-2.037 2.2169-3.1533 0.87048 1.0864 0.69083 3.41-1.687 5.2406l0.97155 1.0007c3.3753-2.3958 3.5449-6.6307 0.95911-7.8232-0.03334-1.1769-0.58261-2.2386-1.7367-2.9369z"/>
<path d="m58.965 20.72-0.75089 0.65484c0.17859 0.93266 0.87974 2.5665 2.9403 2.9236l0.59531-0.52573c-0.87656-1.2801-1.8158-2.1431-2.7847-3.0528z"/>
<path d="m67.893 18.05-0.74745 0.63182c0.17515 0.95568 0.87974 2.5895 2.9369 2.9467l0.59531-0.52573c-0.87656-1.2801-1.8357-2.1431-2.7847-3.0528z"/>
<path d="m61.993 15.05-0.77073 0.65484c0.19844 0.93266 0.87974 2.5665 2.9602 2.9236l0.59531-0.52599c-0.87656-1.2798-1.8357-2.1431-2.7847-3.0525z"/>
<path d="m66.423 12.465-1.411 0.19024c0.50297 5.6713-0.23125 9.7909-4.8226 13.95l1.0753 0.91466c2.1161-1.818 3.4724-3.6917 4.2905-5.6928 0.90911 1.4436 2.3876 2.767 3.5745 3.4967l0.96758-1.0028c-1.4576-1.1099-3.1665-2.7641-3.9071-4.3979 0.55324-2.2722 0.54081-4.7239 0.23283-7.4578z"/>
<path d="m52.917 37.042v-2.1167l-3.3073-0.52917c-1.8201 0-1.9844-0.41063-1.9844-1.3229l-0.01217-2.6458h-2.6337v4.3656c0 1.3113 0.93768 2.249 2.249 2.249z"/>
<path d="m47.622 11.906 0.0029-2.6458c0-0.91255 0.16431-1.3229 1.9844-1.3229l3.3073-0.52917v-2.1167h-5.6885c-1.3113 0-2.249 0.93742-2.249 2.249v4.3656z"/>
<path d="m76.729 11.906v-4.3656c0-1.3115-0.93768-2.249-2.249-2.249h-5.6885v2.1167l3.3073 0.52917c1.8201 0 1.9844 0.41037 1.9844 1.3229l-0.0024 2.6458z"/>
<path d="m74.48 37.042c1.3113 0 2.249-0.93768 2.249-2.249v-4.3656h-2.6424l-0.0034 2.6458c0 0.91228-0.16431 1.3229-1.9844 1.3229l-3.3073 0.52917v2.1167z"/>
</g>
</svg>
